<mxfile host="Electron" modified="2024-05-06T06:37:02.685Z" agent="Mozilla/5.0 (Windows NT 10.0; Win64; x64) AppleWebKit/537.36 (KHTML, like Gecko) draw.io/24.2.5 Chrome/120.0.6099.109 Electron/28.1.0 Safari/537.36" etag="w-tMjsEB3LPKoqtHX5Co" version="24.2.5" type="device">
  <diagram name="Page-1" id="6oRBF_lk4mrTSXIbr-PW">
    <mxGraphModel dx="1434" dy="844" grid="1" gridSize="10" guides="1" tooltips="1" connect="1" arrows="1" fold="1" page="1" pageScale="1" pageWidth="850" pageHeight="1100" math="0" shadow="0">
      <root>
        <mxCell id="0" />
        <mxCell id="1" parent="0" />
        <mxCell id="hrs6SH9fQCK7L7AcH5tU-1" value="" style="rounded=1;whiteSpace=wrap;html=1;" vertex="1" parent="1">
          <mxGeometry x="130" y="100" width="400" height="440" as="geometry" />
        </mxCell>
        <mxCell id="hrs6SH9fQCK7L7AcH5tU-6" style="edgeStyle=orthogonalEdgeStyle;rounded=0;orthogonalLoop=1;jettySize=auto;html=1;entryX=0.5;entryY=0;entryDx=0;entryDy=0;" edge="1" parent="1" source="hrs6SH9fQCK7L7AcH5tU-2" target="hrs6SH9fQCK7L7AcH5tU-3">
          <mxGeometry relative="1" as="geometry" />
        </mxCell>
        <mxCell id="hrs6SH9fQCK7L7AcH5tU-7" style="edgeStyle=orthogonalEdgeStyle;rounded=0;orthogonalLoop=1;jettySize=auto;html=1;entryX=0.5;entryY=0;entryDx=0;entryDy=0;" edge="1" parent="1" source="hrs6SH9fQCK7L7AcH5tU-2" target="hrs6SH9fQCK7L7AcH5tU-5">
          <mxGeometry relative="1" as="geometry" />
        </mxCell>
        <mxCell id="hrs6SH9fQCK7L7AcH5tU-2" value="Application layer" style="rounded=0;whiteSpace=wrap;html=1;" vertex="1" parent="1">
          <mxGeometry x="190" y="150" width="130" height="70" as="geometry" />
        </mxCell>
        <mxCell id="hrs6SH9fQCK7L7AcH5tU-8" style="edgeStyle=orthogonalEdgeStyle;rounded=0;orthogonalLoop=1;jettySize=auto;html=1;entryX=0.5;entryY=1;entryDx=0;entryDy=0;" edge="1" parent="1" source="hrs6SH9fQCK7L7AcH5tU-3" target="hrs6SH9fQCK7L7AcH5tU-5">
          <mxGeometry relative="1" as="geometry" />
        </mxCell>
        <mxCell id="hrs6SH9fQCK7L7AcH5tU-3" value="Infrastructure layer" style="rounded=0;whiteSpace=wrap;html=1;" vertex="1" parent="1">
          <mxGeometry x="190" y="410" width="130" height="70" as="geometry" />
        </mxCell>
        <mxCell id="hrs6SH9fQCK7L7AcH5tU-5" value="Domain model layer" style="rounded=0;whiteSpace=wrap;html=1;" vertex="1" parent="1">
          <mxGeometry x="360" y="280" width="130" height="70" as="geometry" />
        </mxCell>
        <mxCell id="hrs6SH9fQCK7L7AcH5tU-9" value="&lt;p&gt;This relies on the utilization of entity objects and the access to repository interfaces and contracts.&lt;/p&gt;" style="text;html=1;align=center;verticalAlign=middle;whiteSpace=wrap;rounded=0;" vertex="1" parent="1">
          <mxGeometry x="330" y="140" width="180" height="30" as="geometry" />
        </mxCell>
        <mxCell id="hrs6SH9fQCK7L7AcH5tU-10" value="&lt;p&gt;Acts as a mediator between the user interfaces and the domain logic, handling tasks related to application logic, user input validation, and user-specific model interactions.&lt;/p&gt;" style="text;html=1;align=center;verticalAlign=middle;whiteSpace=wrap;rounded=0;" vertex="1" parent="1">
          <mxGeometry x="150" y="300" width="110" height="30" as="geometry" />
        </mxCell>
        <mxCell id="hrs6SH9fQCK7L7AcH5tU-12" value="&lt;p&gt;Use entity objects for database, queue, and other operations.&lt;/p&gt;" style="text;html=1;align=center;verticalAlign=middle;whiteSpace=wrap;rounded=0;" vertex="1" parent="1">
          <mxGeometry x="345" y="460" width="180" height="30" as="geometry" />
        </mxCell>
      </root>
    </mxGraphModel>
  </diagram>
</mxfile>
